<mxfile host="app.diagrams.net" modified="2022-02-17T09:44:07.145Z" agent="5.0 (Windows NT 10.0; Win64; x64) AppleWebKit/537.36 (KHTML, like Gecko) Chrome/97.0.4692.71 Safari/537.36" etag="BX-h2CDReaeuTd9V9tEq" version="16.2.2" type="github">
  <diagram id="ewYeJqe1ELkFIQul4Wk6" name="第 1 页">
    <mxGraphModel dx="1849" dy="705" grid="1" gridSize="10" guides="1" tooltips="1" connect="1" arrows="1" fold="1" page="1" pageScale="1" pageWidth="827" pageHeight="1169" math="0" shadow="0">
      <root>
        <mxCell id="0" />
        <mxCell id="1" parent="0" />
        <mxCell id="upmfQAJAK3JVknnhwCSS-1" value="初始化任务信息" style="rounded=0;whiteSpace=wrap;html=1;" vertex="1" parent="1">
          <mxGeometry x="270" y="140" width="120" height="40" as="geometry" />
        </mxCell>
        <mxCell id="upmfQAJAK3JVknnhwCSS-2" value="是否存在原处理人" style="rounded=0;whiteSpace=wrap;html=1;" vertex="1" parent="1">
          <mxGeometry x="270" y="230" width="120" height="40" as="geometry" />
        </mxCell>
        <mxCell id="upmfQAJAK3JVknnhwCSS-3" value="是否存在自定义分配规则" style="rounded=0;whiteSpace=wrap;html=1;" vertex="1" parent="1">
          <mxGeometry x="-20" y="230" width="120" height="40" as="geometry" />
        </mxCell>
        <mxCell id="upmfQAJAK3JVknnhwCSS-4" value="自定义分配规则" style="rounded=0;whiteSpace=wrap;html=1;" vertex="1" parent="1">
          <mxGeometry x="270" y="400" width="120" height="40" as="geometry" />
        </mxCell>
        <mxCell id="upmfQAJAK3JVknnhwCSS-5" value="默认规则" style="rounded=0;whiteSpace=wrap;html=1;" vertex="1" parent="1">
          <mxGeometry x="-30" y="400" width="120" height="40" as="geometry" />
        </mxCell>
        <mxCell id="upmfQAJAK3JVknnhwCSS-6" value="检查原处理人状态" style="rounded=0;whiteSpace=wrap;html=1;" vertex="1" parent="1">
          <mxGeometry x="540" y="230" width="120" height="40" as="geometry" />
        </mxCell>
        <mxCell id="upmfQAJAK3JVknnhwCSS-7" value="强制打回原处理人" style="rounded=0;whiteSpace=wrap;html=1;" vertex="1" parent="1">
          <mxGeometry x="827" y="400" width="120" height="40" as="geometry" />
        </mxCell>
        <mxCell id="upmfQAJAK3JVknnhwCSS-8" value="原处理人是否有权限" style="rounded=0;whiteSpace=wrap;html=1;" vertex="1" parent="1">
          <mxGeometry x="540" y="400" width="120" height="40" as="geometry" />
        </mxCell>
      </root>
    </mxGraphModel>
  </diagram>
</mxfile>
